<?xml version="1.0" encoding="utf-8"?>
<!-- Generator: Adobe Illustrator 26.0.2, SVG Export Plug-In . SVG Version: 6.00 Build 0)  -->
<svg version="1.1" id="Layer_1" xmlns="http://www.w3.org/2000/svg" xmlns:xlink="http://www.w3.org/1999/xlink" x="0px" y="0px"
	 viewBox="0 0 1946.1 1240" style="enable-background:new 0 0 1946.1 1240;" xml:space="preserve">
<style type="text/css">
	.st0{opacity:0.2;fill:#C0C0C0;enable-background:new    ;}
	.st1{fill:#EEEEEE;}
	.st2{font-family:'ArialMT';}
	.st3{font-size:24px;}
	.st4{fill:#FFFFFF;}
	.st5{fill:none;stroke:#000000;stroke-miterlimit:10;}
	.st6{font-family:'Arial-BoldItalicMT';}
	.st7{font-size:13px;}
	.st8{font-family:'Arial-ItalicMT';}
	.st9{font-family:'Arial-BoldMT';}
	.st10{fill:none;stroke:#000000;stroke-miterlimit:10;stroke-dasharray:3;}
</style>
<g>
	<g transform="translate(-470,-14) scale(1,1)">
		<rect x="1767" y="231" class="st0" width="294.1" height="57"/>
	</g>
	<text transform="matrix(1 0 0 1 200 900)" class="st1 st2 st3">UNREGISTERED</text>
	<text transform="matrix(1 0 0 1 200 930)" class="st1 st2 st3">UNREGISTERED</text>
	<text transform="matrix(1 0 0 1 200 960)" class="st1 st2 st3">UNREGISTERED</text>
	<text transform="matrix(1 0 0 1 600 30)" class="st1 st2 st3">UNREGISTERED</text>
	<text transform="matrix(1 0 0 1 600 60)" class="st1 st2 st3">UNREGISTERED</text>
	<text transform="matrix(1 0 0 1 600 90)" class="st1 st2 st3">UNREGISTERED</text>
	<text transform="matrix(1 0 0 1 600 120)" class="st1 st2 st3">UNREGISTERED</text>
	<text transform="matrix(1 0 0 1 600 150)" class="st1 st2 st3">UNREGISTERED</text>
	<text transform="matrix(1 0 0 1 600 180)" class="st1 st2 st3">UNREGISTERED</text>
	<text transform="matrix(1 0 0 1 600 210)" class="st1 st2 st3">UNREGISTERED</text>
	<text transform="matrix(1 0 0 1 600 240)" class="st1 st2 st3">UNREGISTERED</text>
	<text transform="matrix(1 0 0 1 600 270)" class="st1 st2 st3">UNREGISTERED</text>
	<text transform="matrix(1 0 0 1 600 300)" class="st1 st2 st3">UNREGISTERED</text>
	<text transform="matrix(1 0 0 1 600 420)" class="st1 st2 st3">UNREGISTERED</text>
	<text transform="matrix(1 0 0 1 600 450)" class="st1 st2 st3">UNREGISTERED</text>
	<text transform="matrix(1 0 0 1 600 480)" class="st1 st2 st3">UNREGISTERED</text>
	<text transform="matrix(1 0 0 1 600 510)" class="st1 st2 st3">UNREGISTERED</text>
	<text transform="matrix(1 0 0 1 600 540)" class="st1 st2 st3">UNREGISTERED</text>
	<text transform="matrix(1 0 0 1 600 570)" class="st1 st2 st3">UNREGISTERED</text>
	<text transform="matrix(1 0 0 1 600 600)" class="st1 st2 st3">UNREGISTERED</text>
	<text transform="matrix(1 0 0 1 600 900)" class="st1 st2 st3">UNREGISTERED</text>
	<text transform="matrix(1 0 0 1 600 930)" class="st1 st2 st3">UNREGISTERED</text>
	<text transform="matrix(1 0 0 1 600 960)" class="st1 st2 st3">UNREGISTERED</text>
	<text transform="matrix(1 0 0 1 600 990)" class="st1 st2 st3">UNREGISTERED</text>
	<text transform="matrix(1 0 0 1 1000 240)" class="st1 st2 st3">UNREGISTERED</text>
	<text transform="matrix(1 0 0 1 1000 270)" class="st1 st2 st3">UNREGISTERED</text>
	<text transform="matrix(1 0 0 1 1000 900)" class="st1 st2 st3">UNREGISTERED</text>
	<text transform="matrix(1 0 0 1 1000 930)" class="st1 st2 st3">UNREGISTERED</text>
	<text transform="matrix(1 0 0 1 1000 960)" class="st1 st2 st3">UNREGISTERED</text>
	<text transform="matrix(1 0 0 1 1000 990)" class="st1 st2 st3">UNREGISTERED</text>
	<text transform="matrix(1 0 0 1 1400 120)" class="st1 st2 st3">UNREGISTERED</text>
	<text transform="matrix(1 0 0 1 1400 150)" class="st1 st2 st3">UNREGISTERED</text>
	<text transform="matrix(1 0 0 1 1400 900)" class="st1 st2 st3">UNREGISTERED</text>
	<text transform="matrix(1 0 0 1 1400 930)" class="st1 st2 st3">UNREGISTERED</text>
	<text transform="matrix(1 0 0 1 1400 960)" class="st1 st2 st3">UNREGISTERED</text>
	<text transform="matrix(1 0 0 1 1400 990)" class="st1 st2 st3">UNREGISTERED</text>
	<g transform="translate(-470,-14) scale(1,1)">
		<rect x="911" y="31" class="st0" width="448" height="312"/>
	</g>
	<g transform="translate(-470,-14) scale(1,1)">
		<rect x="904" y="24" class="st4" width="448" height="312"/>
	</g>
	<g transform="translate(-470,-14) scale(1,1)">
		<path class="st5" d="M904,24h448v312H904V24z"/>
	</g>
	<g transform="translate(-470,-14) scale(1,1)">
		<path class="st5" d="M904,49h448"/>
	</g>
	<g transform="translate(-470,-14) scale(1,1)">
		<path class="st5" d="M904,132h448"/>
	</g>
	<g transform="translate(-470,-14) scale(1,1)">
		<g>
			<path class="st5" d="M0,0"/>
			<text transform="matrix(1 0 0 1 1105.9641 41.5386)" class="st6 st7">Sensor</text>
		</g>
	</g>
	<g transform="translate(-470,-14) scale(1,1)">
		<g>
			<path d="M0,0"/>
			<text transform="matrix(1 0 0 1 909 64.71)" class="st2 st7">-id: unsigned int</text>
		</g>
	</g>
	<g transform="translate(-470,-14) scale(1,1)">
		<g>
			<path d="M0,0"/>
			<text transform="matrix(1 0 0 1 909 79.71)" class="st2 st7">-name: std::string</text>
		</g>
	</g>
	<g transform="translate(-470,-14) scale(1,1)">
		<g>
			<path d="M0,0"/>
			<text transform="matrix(1 0 0 1 909 94.71)" class="st2 st7">-reliability: unsigned int</text>
		</g>
	</g>
	<g transform="translate(-470,-14) scale(1,1)">
		<g>
			<path d="M0,0"/>
			<text transform="matrix(1 0 0 1 909 109.4719)" class="st2 st7">-range: Range</text>
		</g>
	</g>
	<g transform="translate(-470,-14) scale(1,1)">
		<g>
			<path d="M0,0"/>
			<text transform="matrix(1 0 0 1 909 124.71)" class="st2 st7">-mesureDistribution: MesureDistribution*</text>
		</g>
	</g>
	<g transform="translate(-470,-14) scale(1,1)">
		<g>
			<path d="M0,0"/>
			<text transform="matrix(1 0 0 1 909 147.71)" class="st2 st7">+Sensor(id: unsigned int, name: std::string, reliability: unsigned int, range:</text>
			<text transform="matrix(1 0 0 1 909 160.71)" class="st2 st7">Range, mesureDestribution: MesureDistribution*)</text>
		</g>
	</g>
	<g transform="translate(-470,-14) scale(1,1)">
		<g>
			<path d="M0,0"/>
			<text transform="matrix(1 0 0 1 909 175.71)" class="st8 st7">+~Sensor()</text>
		</g>
	</g>
	<g transform="translate(-470,-14) scale(1,1)">
		<g>
			<path d="M0,0"/>
			<text transform="matrix(1 0 0 1 909 190.71)" class="st2 st7">+getId(): unsiged int</text>
		</g>
	</g>
	<g transform="translate(-470,-14) scale(1,1)">
		<g>
			<path d="M0,0"/>
			<text transform="matrix(1 0 0 1 909 205.71)" class="st2 st7">+getName(): std::string &amp;</text>
		</g>
	</g>
	<g transform="translate(-470,-14) scale(1,1)">
		<g>
			<path d="M0,0"/>
			<text transform="matrix(1 0 0 1 909 220.71)" class="st2 st7">+getReliability(): unsigned int</text>
		</g>
	</g>
	<g transform="translate(-470,-14) scale(1,1)">
		<g>
			<path d="M0,0"/>
			<text transform="matrix(1 0 0 1 909 235.71)" class="st2 st7">+getMinValue(): unsigned int</text>
		</g>
	</g>
	<g transform="translate(-470,-14) scale(1,1)">
		<g>
			<path d="M0,0"/>
			<text transform="matrix(1 0 0 1 909 250.71)" class="st2 st7">+getRange(): Range</text>
		</g>
	</g>
	<g transform="translate(-470,-14) scale(1,1)">
		<g>
			<path d="M0,0"/>
			<text transform="matrix(1 0 0 1 909 265.71)" class="st2 st7">+setId(id: unsigned int)</text>
		</g>
	</g>
	<g transform="translate(-470,-14) scale(1,1)">
		<g>
			<path d="M0,0"/>
			<text transform="matrix(1 0 0 1 909 280.71)" class="st2 st7">+setName(name: std::string)</text>
		</g>
	</g>
	<g transform="translate(-470,-14) scale(1,1)">
		<g>
			<path d="M0,0"/>
			<text transform="matrix(1 0 0 1 909 295.71)" class="st2 st7">+setReliability(reliability: unsigned int)</text>
		</g>
	</g>
	<g transform="translate(-470,-14) scale(1,1)">
		<g>
			<path d="M0,0"/>
			<text transform="matrix(1 0 0 1 909 310.71)" class="st2 st7">+setRange(range: Range)</text>
		</g>
	</g>
	<g transform="translate(-470,-14) scale(1,1)">
		<g>
			<path d="M0,0"/>
			<text transform="matrix(1 0 0 1 909 325.71)" class="st8 st7">+isHealthy(value: float): bool</text>
		</g>
	</g>
	<g transform="translate(-470,-14) scale(1,1)">
		<rect x="1375" y="887" class="st0" width="384" height="128"/>
	</g>
	<g transform="translate(-470,-14) scale(1,1)">
		<rect x="1368" y="880" class="st4" width="384" height="128"/>
	</g>
	<g transform="translate(-470,-14) scale(1,1)">
		<path class="st5" d="M1368,880h384v128h-384V880z"/>
	</g>
	<g transform="translate(-470,-14) scale(1,1)">
		<path class="st5" d="M1368,905h384"/>
	</g>
	<g transform="translate(-470,-14) scale(1,1)">
		<path class="st5" d="M1368,915h384"/>
	</g>
	<g transform="translate(-470,-14) scale(1,1)">
		<g>
			<path class="st5" d="M0,0"/>
			<text transform="matrix(1 0 0 1 1529.2932 897.4719)" class="st9 st7">HeartRate</text>
		</g>
	</g>
	<g transform="translate(-470,-14) scale(1,1)">
		<g>
			<path d="M0,0"/>
			<text transform="matrix(1 0 0 1 1373 930.71)" class="st2 st7">+HeartRate(id: unsigned int, name: std::string, reliability:</text>
			<text transform="matrix(1 0 0 1 1373 943.71)" class="st2 st7">unsigned int, range: Range, isUnderStress: bool,</text>
			<text transform="matrix(1 0 0 1 1373 956.71)" class="st2 st7">mesureDestribution: NormalDistribution*)</text>
		</g>
	</g>
	<g transform="translate(-470,-14) scale(1,1)">
		<rect x="487" y="879" class="st0" width="384" height="112"/>
	</g>
	<g transform="translate(-470,-14) scale(1,1)">
		<rect x="480" y="872" class="st4" width="384" height="112"/>
	</g>
	<g transform="translate(-470,-14) scale(1,1)">
		<path class="st5" d="M480,872h384v112H480V872z"/>
	</g>
	<g transform="translate(-470,-14) scale(1,1)">
		<path class="st5" d="M480,897h384"/>
	</g>
	<g transform="translate(-470,-14) scale(1,1)">
		<path class="st5" d="M480,907h384"/>
	</g>
	<g transform="translate(-470,-14) scale(1,1)">
		<g>
			<path class="st5" d="M0,0"/>
			<text transform="matrix(1 0 0 1 615.6519 889.71)" class="st9 st7">OxygenSaturarion</text>
		</g>
	</g>
	<g transform="translate(-470,-14) scale(1,1)">
		<g>
			<path d="M0,0"/>
			<text transform="matrix(1 0 0 1 485 922.71)" class="st2 st7">+OxygenSaturarion(id: unsigned int, name: std::string, reliability:</text>
			<text transform="matrix(1 0 0 1 485 935.71)" class="st2 st7">unsigned int, range: Range, mesureDestribution:</text>
			<text transform="matrix(1 0 0 1 485 948.71)" class="st2 st7">UniformDistribution*)</text>
		</g>
	</g>
	<g transform="translate(-470,-14) scale(1,1)">
		<rect x="1063" y="423" class="st0" width="384" height="201"/>
	</g>
	<g transform="translate(-470,-14) scale(1,1)">
		<rect x="1056" y="416" class="st4" width="384" height="201"/>
	</g>
	<g transform="translate(-470,-14) scale(1,1)">
		<path class="st5" d="M1056,416h384v201h-384V416z"/>
	</g>
	<g transform="translate(-470,-14) scale(1,1)">
		<path class="st5" d="M1056,441h384"/>
	</g>
	<g transform="translate(-470,-14) scale(1,1)">
		<path class="st5" d="M1056,479h384"/>
	</g>
	<g transform="translate(-470,-14) scale(1,1)">
		<g>
			<path class="st5" d="M0,0"/>
			<text transform="matrix(1 0 0 1 1201.7637 433.71)" class="st9 st7">BloodPressure</text>
		</g>
	</g>
	<g transform="translate(-470,-14) scale(1,1)">
		<g>
			<path d="M0,0"/>
			<text transform="matrix(1 0 0 1 1061 456.71)" class="st2 st7">-sistolicHealthyRange: Range</text>
		</g>
	</g>
	<g transform="translate(-470,-14) scale(1,1)">
		<g>
			<path d="M0,0"/>
			<text transform="matrix(1 0 0 1 1061 471.71)" class="st2 st7">-diastolicHealthyRange: Range</text>
		</g>
	</g>
	<g transform="translate(-470,-14) scale(1,1)">
		<g>
			<path d="M0,0"/>
			<text transform="matrix(1 0 0 1 1061 494.71)" class="st2 st7">+BloodPressure(id: unsigned int, name: std::string, reliability:</text>
			<text transform="matrix(1 0 0 1 1061 507.71)" class="st2 st7">unsigned int, range: Range, unitOfMesure: bool,</text>
			<text transform="matrix(1 0 0 1 1061 520.71)" class="st2 st7">mesureDestribution: uniformDistribution*)</text>
		</g>
	</g>
	<g transform="translate(-470,-14) scale(1,1)">
		<g>
			<path d="M0,0"/>
			<text transform="matrix(1 0 0 1 1061 535.71)" class="st2 st7">+getSistolicHealthyRange(): Range</text>
		</g>
	</g>
	<g transform="translate(-470,-14) scale(1,1)">
		<g>
			<path d="M0,0"/>
			<text transform="matrix(1 0 0 1 1061 550.71)" class="st2 st7">+getDiastolicHealthyRange(): Range</text>
		</g>
	</g>
	<g transform="translate(-470,-14) scale(1,1)">
		<g>
			<path d="M0,0"/>
			<text transform="matrix(1 0 0 1 1061 565.71)" class="st2 st7">+setSistolicHealthyRange(raneg: Range)</text>
		</g>
	</g>
	<g transform="translate(-470,-14) scale(1,1)">
		<g>
			<path d="M0,0"/>
			<text transform="matrix(1 0 0 1 1061 580.71)" class="st2 st7">+setDiastolicHealthyRange(range: Range)</text>
		</g>
	</g>
	<g transform="translate(-470,-14) scale(1,1)">
		<g>
			<path d="M0,0"/>
			<text transform="matrix(1 0 0 1 1061 595.71)" class="st2 st7">+isHealthy(value: float): bool</text>
		</g>
	</g>
	<g transform="translate(-470,-14) scale(1,1)">
		<g>
			<path d="M0,0"/>
			<text transform="matrix(1 0 0 1 1061 610.71)" class="st2 st7">+isHealthyDiastolic(value: float): bool</text>
		</g>
	</g>
	<g transform="translate(-470,-14) scale(1,1)">
		<rect x="1807" y="887" class="st0" width="384" height="141"/>
	</g>
	<g transform="translate(-470,-14) scale(1,1)">
		<rect x="1800" y="880" class="st4" width="384" height="141"/>
	</g>
	<g transform="translate(-470,-14) scale(1,1)">
		<path class="st5" d="M1800,880h384v141h-384V880z"/>
	</g>
	<g transform="translate(-470,-14) scale(1,1)">
		<path class="st5" d="M1800,905h384"/>
	</g>
	<g transform="translate(-470,-14) scale(1,1)">
		<path class="st5" d="M1800,928h384"/>
	</g>
	<g transform="translate(-470,-14) scale(1,1)">
		<g>
			<path class="st5" d="M0,0"/>
			<text transform="matrix(1 0 0 1 1953.1079 897.4719)" class="st9 st7">Temperature</text>
		</g>
	</g>
	<g transform="translate(-470,-14) scale(1,1)">
		<g>
			<path d="M0,0"/>
			<text transform="matrix(1 0 0 1 1805 920.71)" class="st2 st7">-unitOfMesure: bool</text>
		</g>
	</g>
	<g transform="translate(-470,-14) scale(1,1)">
		<g>
			<path d="M0,0"/>
			<text transform="matrix(1 0 0 1 1805 943.71)" class="st2 st7">+Temperature(id: unsigned int, name: std::string, reliability:</text>
			<text transform="matrix(1 0 0 1 1805 956.71)" class="st2 st7">unsigned int, range: Range, unitOfMesure: bool,</text>
			<text transform="matrix(1 0 0 1 1805 969.71)" class="st2 st7">mesureDestribution: NormalDistribution*)</text>
		</g>
	</g>
	<g transform="translate(-470,-14) scale(1,1)">
		<g>
			<path d="M0,0"/>
			<text transform="matrix(1 0 0 1 1805 984.71)" class="st2 st7">+setUnifOfMesure(unitOfMesure: bool)</text>
		</g>
	</g>
	<g transform="translate(-470,-14) scale(1,1)">
		<g>
			<path d="M0,0"/>
			<text transform="matrix(1 0 0 1 1805 999.71)" class="st2 st7">+getUnitOfMesure(): bool</text>
		</g>
	</g>
	<g transform="translate(-470,-14) scale(1,1)">
		<g>
			<path d="M0,0"/>
			<text transform="matrix(1 0 0 1 1805 1014.71)" class="st2 st7">+convert(unitOfMesure: bool): bool</text>
		</g>
	</g>
	<g transform="translate(-470,-14) scale(1,1)">
		<rect x="935" y="887" class="st0" width="384" height="126"/>
	</g>
	<g transform="translate(-470,-14) scale(1,1)">
		<rect x="928" y="880" class="st4" width="384" height="126"/>
	</g>
	<g transform="translate(-470,-14) scale(1,1)">
		<path class="st5" d="M928,880h384v126H928V880z"/>
	</g>
	<g transform="translate(-470,-14) scale(1,1)">
		<path class="st5" d="M928,905h384"/>
	</g>
	<g transform="translate(-470,-14) scale(1,1)">
		<path class="st5" d="M928,928h384"/>
	</g>
	<g transform="translate(-470,-14) scale(1,1)">
		<g>
			<path class="st5" d="M0,0"/>
			<text transform="matrix(1 0 0 1 1066.54 897.71)" class="st9 st7">BreathFrequency</text>
		</g>
	</g>
	<g transform="translate(-470,-14) scale(1,1)">
		<g>
			<path d="M0,0"/>
			<text transform="matrix(1 0 0 1 933 920.71)" class="st2 st7">-age: unsigned int</text>
		</g>
	</g>
	<g transform="translate(-470,-14) scale(1,1)">
		<g>
			<path d="M0,0"/>
			<text transform="matrix(1 0 0 1 933 943.71)" class="st2 st7">+BreathFrequency(id: unsigned int, name: std::string, reliability:</text>
			<text transform="matrix(1 0 0 1 933 956.71)" class="st2 st7">unsigned int, range: Range, age: unsigned int, isUnderStress:</text>
			<text transform="matrix(1 0 0 1 933 969.71)" class="st2 st7">bool, mesureDestribution: SinDistribution*)</text>
		</g>
	</g>
	<g transform="translate(-470,-14) scale(1,1)">
		<g>
			<path d="M0,0"/>
			<text transform="matrix(1 0 0 1 933 984.71)" class="st2 st7">+setAge(age: unsigned int)</text>
		</g>
	</g>
	<g transform="translate(-470,-14) scale(1,1)">
		<g>
			<path d="M0,0"/>
			<text transform="matrix(1 0 0 1 933 999.71)" class="st2 st7">+getAge(): unsigned int</text>
		</g>
	</g>
	<g transform="translate(-470,-14) scale(1,1)">
		<rect x="1775" y="111" class="st0" width="294.1" height="70"/>
	</g>
	<g transform="translate(-470,-14) scale(1,1)">
		<rect x="1768" y="104" class="st4" width="294.1" height="70"/>
	</g>
	<g transform="translate(-470,-14) scale(1,1)">
		<path class="st5" d="M1768,104h294.1v70H1768V104z"/>
	</g>
	<g transform="translate(-470,-14) scale(1,1)">
		<path class="st5" d="M1768,129h294.1"/>
	</g>
	<g transform="translate(-470,-14) scale(1,1)">
		<path class="st5" d="M1768,152h294.1"/>
	</g>
	<g transform="translate(-470,-14) scale(1,1)">
		<g>
			<path class="st5" d="M0,0"/>
			<text transform="matrix(1 0 0 1 1855.8098 121.71)" class="st6 st7">MesureDistribution</text>
		</g>
	</g>
	<g transform="translate(-470,-14) scale(1,1)">
		<g>
			<path d="M0,0"/>
			<text transform="matrix(1 0 0 1 1773 144.71)" class="st2 st7">#noise: bool</text>
		</g>
	</g>
	<g transform="translate(-470,-14) scale(1,1)">
		<g>
			<path d="M0,0"/>
			<text transform="matrix(1 0 0 1 1773 167.71)" class="st8 st7">+getDistribution(range: Range): std::vector&lt;float&gt;</text>
		</g>
	</g>
	<g transform="translate(-470,-14) scale(1,1)">
		<rect x="1431" y="231" class="st0" width="294.1" height="57"/>
	</g>
	<g transform="translate(-470,-14) scale(1,1)">
		<rect x="1424" y="224" class="st4" width="294.1" height="57"/>
	</g>
	<g transform="translate(-470,-14) scale(1,1)">
		<path class="st5" d="M1424,224h294.1v57H1424V224z"/>
	</g>
	<g transform="translate(-470,-14) scale(1,1)">
		<path class="st5" d="M1424,249h294.1"/>
	</g>
	<g transform="translate(-470,-14) scale(1,1)">
		<path class="st5" d="M1424,259h294.1"/>
	</g>
	<g transform="translate(-470,-14) scale(1,1)">
		<g>
			<path class="st5" d="M0,0"/>
			<text transform="matrix(1 0 0 1 1512.1748 241.71)" class="st9 st7">NormalDistribution</text>
		</g>
	</g>
	<g transform="translate(-470,-14) scale(1,1)">
		<g>
			<path d="M0,0"/>
			<text transform="matrix(1 0 0 1 1429 274.71)" class="st2 st7">+getDistribution(range: Range): std::vector&lt;float&gt;</text>
		</g>
	</g>
	<g transform="translate(-470,-14) scale(1,1)">
		<path class="st5" d="M1352,128h416"/>
	</g>
	<g transform="translate(-470,-14) scale(1,1)">
		<path class="st4" d="M1757.8,132.2l10.2-4.2l-10.2-4.2L1746,128"/>
	</g>
	<g transform="translate(-470,-14) scale(1,1)">
		<path class="st5" d="M1757.8,132.2l10.2-4.2l-10.2-4.2L1746,128L1757.8,132.2"/>
	</g>
	<g transform="translate(-470,-14) scale(1,1)">
		<rect x="1760" y="224" class="st4" width="294.1" height="57"/>
	</g>
	<g transform="translate(-470,-14) scale(1,1)">
		<path class="st5" d="M1760,224h294.1v57H1760V224z"/>
	</g>
	<g transform="translate(-470,-14) scale(1,1)">
		<path class="st5" d="M1760,249h294.1"/>
	</g>
	<g transform="translate(-470,-14) scale(1,1)">
		<path class="st5" d="M1760,259h294.1"/>
	</g>
	<g transform="translate(-470,-14) scale(1,1)">
		<g>
			<path class="st5" d="M0,0"/>
			<text transform="matrix(1 0 0 1 1845.6548 241.71)" class="st9 st7">UniformDistribution</text>
		</g>
	</g>
	<g transform="translate(-470,-14) scale(1,1)">
		<g>
			<path d="M0,0"/>
			<text transform="matrix(1 0 0 1 1765 274.71)" class="st2 st7">+getDistribution(range: Range): std::vector&lt;float&gt;</text>
		</g>
	</g>
	<g transform="translate(-470,-14) scale(1,1)">
		<rect x="2119" y="231" class="st0" width="294.1" height="57"/>
	</g>
	<g transform="translate(-470,-14) scale(1,1)">
		<rect x="2112" y="224" class="st4" width="294.1" height="57"/>
	</g>
	<g transform="translate(-470,-14) scale(1,1)">
		<path class="st5" d="M2112,224h294.1v57H2112V224z"/>
	</g>
	<g transform="translate(-470,-14) scale(1,1)">
		<path class="st5" d="M2112,249h294.1"/>
	</g>
	<g transform="translate(-470,-14) scale(1,1)">
		<path class="st5" d="M2112,259h294.1"/>
	</g>
	<g transform="translate(-470,-14) scale(1,1)">
		<g>
			<path class="st5" d="M0,0"/>
			<text transform="matrix(1 0 0 1 2212.4575 241.71)" class="st9 st7">SinDistribution</text>
		</g>
	</g>
	<g transform="translate(-470,-14) scale(1,1)">
		<g>
			<path d="M0,0"/>
			<text transform="matrix(1 0 0 1 2117 274.71)" class="st2 st7">+getDistribution(range: Range): std::vector&lt;float&gt;</text>
		</g>
	</g>
	<g transform="translate(-470,-14) scale(1,1)">
		<path class="st5" d="M1591,224v-24h281v-26"/>
	</g>
	<g transform="translate(-470,-14) scale(1,1)">
		<path class="st4" d="M1880.4,194.3L1872,174l-8.4,20.3"/>
	</g>
	<g transform="translate(-470,-14) scale(1,1)">
		<path class="st5" d="M1880.4,194.3L1872,174l-8.4,20.3H1880.4"/>
	</g>
	<g transform="translate(-470,-14) scale(1,1)">
		<path class="st5" d="M1872,224v-50"/>
	</g>
	<g transform="translate(-470,-14) scale(1,1)">
		<path class="st4" d="M1880.4,194.3L1872,174l-8.4,20.3"/>
	</g>
	<g transform="translate(-470,-14) scale(1,1)">
		<path class="st5" d="M1880.4,194.3L1872,174l-8.4,20.3H1880.4"/>
	</g>
	<g transform="translate(-470,-14) scale(1,1)">
		<path class="st5" d="M2253,224v-24h-381v-26"/>
	</g>
	<g transform="translate(-470,-14) scale(1,1)">
		<path class="st4" d="M1880.4,194.3L1872,174l-8.4,20.3"/>
	</g>
	<g transform="translate(-470,-14) scale(1,1)">
		<path class="st5" d="M1880.4,194.3L1872,174l-8.4,20.3H1880.4"/>
	</g>
	<g transform="translate(-470,-14) scale(1,1)">
		<rect x="503" y="63" class="st0" width="334.5" height="190"/>
	</g>
	<g transform="translate(-470,-14) scale(1,1)">
		<rect x="496" y="56" class="st4" width="334.5" height="190"/>
	</g>
	<g transform="translate(-470,-14) scale(1,1)">
		<path class="st5" d="M496,56h334.5v190H496V56z"/>
	</g>
	<g transform="translate(-470,-14) scale(1,1)">
		<path class="st5" d="M496,81h334.5"/>
	</g>
	<g transform="translate(-470,-14) scale(1,1)">
		<path class="st5" d="M496,119h334.5"/>
	</g>
	<g transform="translate(-470,-14) scale(1,1)">
		<g>
			<path class="st5" d="M0,0"/>
			<text transform="matrix(1 0 0 1 643.3889 73.4719)" class="st9 st7">Range</text>
		</g>
	</g>
	<g transform="translate(-470,-14) scale(1,1)">
		<g>
			<path d="M0,0"/>
			<text transform="matrix(1 0 0 1 501 96.71)" class="st2 st7">-minimum</text>
		</g>
	</g>
	<g transform="translate(-470,-14) scale(1,1)">
		<g>
			<path d="M0,0"/>
			<text transform="matrix(1 0 0 1 501 111.71)" class="st2 st7">-maximum</text>
		</g>
	</g>
	<g transform="translate(-470,-14) scale(1,1)">
		<g>
			<path d="M0,0"/>
			<text transform="matrix(1 0 0 1 501 134.71)" class="st2 st7">+Range(minimum: unsigned int, mazimum: unsigned int)</text>
		</g>
	</g>
	<g transform="translate(-470,-14) scale(1,1)">
		<g>
			<path d="M0,0"/>
			<text transform="matrix(1 0 0 1 501 149.71)" class="st2 st7">+getMinimum(): unsigned int</text>
		</g>
	</g>
	<g transform="translate(-470,-14) scale(1,1)">
		<g>
			<path d="M0,0"/>
			<text transform="matrix(1 0 0 1 501 164.71)" class="st2 st7">+getMaximum(): unsigned int</text>
		</g>
	</g>
	<g transform="translate(-470,-14) scale(1,1)">
		<g>
			<path d="M0,0"/>
			<text transform="matrix(1 0 0 1 501 179.71)" class="st2 st7">+setMinimum(min: unsigned int)</text>
		</g>
	</g>
	<g transform="translate(-470,-14) scale(1,1)">
		<g>
			<path d="M0,0"/>
			<text transform="matrix(1 0 0 1 501 194.71)" class="st2 st7">+setMaximum(max: unsigned int)</text>
		</g>
	</g>
	<g transform="translate(-470,-14) scale(1,1)">
		<g>
			<path d="M0,0"/>
			<text transform="matrix(1 0 0 1 501 209.71)" class="st2 st7">+contains(value: float): bool</text>
		</g>
	</g>
	<g transform="translate(-470,-14) scale(1,1)">
		<rect x="695" y="543" class="st0" width="328" height="152"/>
	</g>
	<g transform="translate(-470,-14) scale(1,1)">
		<rect x="688" y="536" class="st4" width="328" height="152"/>
	</g>
	<g transform="translate(-470,-14) scale(1,1)">
		<path class="st5" d="M688,536h328v152H688V536z"/>
	</g>
	<g transform="translate(-470,-14) scale(1,1)">
		<path class="st5" d="M688,561h328"/>
	</g>
	<g transform="translate(-470,-14) scale(1,1)">
		<path class="st5" d="M688,584h328"/>
	</g>
	<g transform="translate(-470,-14) scale(1,1)">
		<g>
			<path class="st5" d="M0,0"/>
			<text transform="matrix(1 0 0 1 808.655 553.71)" class="st6 st7">HealthyRange</text>
		</g>
	</g>
	<g transform="translate(-470,-14) scale(1,1)">
		<g>
			<path d="M0,0"/>
			<text transform="matrix(1 0 0 1 693 576.71)" class="st2 st7">-healthyRange: Range</text>
		</g>
	</g>
	<g transform="translate(-470,-14) scale(1,1)">
		<g>
			<path d="M0,0"/>
			<text transform="matrix(1 0 0 1 693 599.71)" class="st2 st7">+HealthyRange(id: unsigned int, name: std::string,</text>
			<text transform="matrix(1 0 0 1 693 612.71)" class="st2 st7">reliability: unsigned int, range: Range, healthyRange:</text>
			<text transform="matrix(1 0 0 1 693 625.71)" class="st2 st7">Range, mesureDestribution: MesureDistribution*)</text>
		</g>
	</g>
	<g transform="translate(-470,-14) scale(1,1)">
		<g>
			<path d="M0,0"/>
			<text transform="matrix(1 0 0 1 693 640.71)" class="st2 st7">+getHealthyRange(): Range</text>
		</g>
	</g>
	<g transform="translate(-470,-14) scale(1,1)">
		<g>
			<path d="M0,0"/>
			<text transform="matrix(1 0 0 1 693 655.71)" class="st2 st7">+setHealthyRange(range: Range)</text>
		</g>
	</g>
	<g transform="translate(-470,-14) scale(1,1)">
		<g>
			<path d="M0,0"/>
			<text transform="matrix(1 0 0 1 693 670.71)" class="st2 st7">+isHealthy(value: float): bool</text>
		</g>
	</g>
	<g transform="translate(-470,-14) scale(1,1)">
		<rect x="1191" y="1151" class="st0" width="243.5" height="100"/>
	</g>
	<g transform="translate(-470,-14) scale(1,1)">
		<rect x="1184" y="1144" class="st4" width="243.5" height="100"/>
	</g>
	<g transform="translate(-470,-14) scale(1,1)">
		<path class="st5" d="M1184,1144h243.5v100H1184V1144z"/>
	</g>
	<g transform="translate(-470,-14) scale(1,1)">
		<path class="st5" d="M1184,1169h243.5"/>
	</g>
	<g transform="translate(-470,-14) scale(1,1)">
		<path class="st5" d="M1184,1192h243.5"/>
	</g>
	<g transform="translate(-470,-14) scale(1,1)">
		<g>
			<path class="st5" d="M0,0"/>
			<text transform="matrix(1 0 0 1 1250.0881 1161.71)" class="st6 st7">StressMeasurable</text>
		</g>
	</g>
	<g transform="translate(-470,-14) scale(1,1)">
		<g>
			<path d="M0,0"/>
			<text transform="matrix(1 0 0 1 1189 1184.71)" class="st2 st7">-isUnderStress: bool</text>
		</g>
	</g>
	<g transform="translate(-470,-14) scale(1,1)">
		<g>
			<path d="M0,0"/>
			<text transform="matrix(1 0 0 1 1189 1207.71)" class="st2 st7">+StressMeasurable(isUnderStress: bool)</text>
		</g>
	</g>
	<g transform="translate(-470,-14) scale(1,1)">
		<g>
			<path d="M0,0"/>
			<text transform="matrix(1 0 0 1 1189 1222.71)" class="st2 st7">+getIsUnderStress(): bool</text>
		</g>
	</g>
	<g transform="translate(-470,-14) scale(1,1)">
		<g>
			<path d="M0,0"/>
			<text transform="matrix(1 0 0 1 1189 1237.71)" class="st2 st7">+setIsUnderStress(stress: bool)</text>
		</g>
	</g>
	<g transform="translate(-470,-14) scale(1,1)">
		<path class="st5" d="M688,608h-32V246"/>
	</g>
	<g transform="translate(-470,-14) scale(1,1)">
		<path class="st4" d="M660.2,256.2L656,246l-4.2,10.2L656,268"/>
	</g>
	<g transform="translate(-470,-14) scale(1,1)">
		<path class="st5" d="M660.2,256.2L656,246l-4.2,10.2L656,268L660.2,256.2"/>
	</g>
	<g transform="translate(-470,-14) scale(1,1)">
		<path class="st5" d="M904,136h-73"/>
	</g>
	<g transform="translate(-470,-14) scale(1,1)">
		<path class="st4" d="M841.2,131.8L831,136l10.2,4.2L853,136"/>
	</g>
	<g transform="translate(-470,-14) scale(1,1)">
		<path class="st5" d="M841.2,131.8L831,136l10.2,4.2L853,136L841.2,131.8"/>
	</g>
	<g transform="translate(-470,-14) scale(1,1)">
		<path class="st10" d="M852,536V396h116v-60"/>
	</g>
	<g transform="translate(-470,-14) scale(1,1)">
		<path class="st4" d="M976.4,356.3L968,336l-8.4,20.3"/>
	</g>
	<g transform="translate(-470,-14) scale(1,1)">
		<path class="st5" d="M976.4,356.3L968,336l-8.4,20.3H976.4"/>
	</g>
	<g transform="translate(-470,-14) scale(1,1)">
		<path class="st5" d="M1152,416v-80"/>
	</g>
	<g transform="translate(-470,-14) scale(1,1)">
		<path class="st4" d="M1160.4,356.3L1152,336l-8.4,20.3"/>
	</g>
	<g transform="translate(-470,-14) scale(1,1)">
		<path class="st5" d="M1160.4,356.3L1152,336l-8.4,20.3H1160.4"/>
	</g>
	<g transform="translate(-470,-14) scale(1,1)">
		<path class="st5" d="M672,871V760h176l2-71"/>
	</g>
	<g transform="translate(-470,-14) scale(1,1)">
		<path class="st4" d="M857.8,709.6L850,689l-9,20.1"/>
	</g>
	<g transform="translate(-470,-14) scale(1,1)">
		<path class="st5" d="M857.8,709.6L850,689l-9,20.1L857.8,709.6"/>
	</g>
	<g transform="translate(-470,-14) scale(1,1)">
		<path class="st5" d="M1120,879V760H848l2-71"/>
	</g>
	<g transform="translate(-470,-14) scale(1,1)">
		<path class="st4" d="M857.8,709.6L850,689l-9,20.1"/>
	</g>
	<g transform="translate(-470,-14) scale(1,1)">
		<path class="st5" d="M857.8,709.6L850,689l-9,20.1L857.8,709.6"/>
	</g>
	<g transform="translate(-470,-14) scale(1,1)">
		<path class="st5" d="M1992,879V760H848l2-71"/>
	</g>
	<g transform="translate(-470,-14) scale(1,1)">
		<path class="st4" d="M857.8,709.6L850,689l-9,20.1"/>
	</g>
	<g transform="translate(-470,-14) scale(1,1)">
		<path class="st5" d="M857.8,709.6L850,689l-9,20.1L857.8,709.6"/>
	</g>
	<g transform="translate(-470,-14) scale(1,1)">
		<path class="st5" d="M1120,1007v73h184l1,63"/>
	</g>
	<g transform="translate(-470,-14) scale(1,1)">
		<path class="st4" d="M1296.3,1122.8l8.7,20.2l8.1-20.5"/>
	</g>
	<g transform="translate(-470,-14) scale(1,1)">
		<path class="st5" d="M1296.3,1122.8l8.7,20.2l8.1-20.5L1296.3,1122.8"/>
	</g>
	<g transform="translate(-470,-14) scale(1,1)">
		<path class="st5" d="M1560,879V760H848l2-71"/>
	</g>
	<g transform="translate(-470,-14) scale(1,1)">
		<path class="st4" d="M857.8,709.6L850,689l-9,20.1"/>
	</g>
	<g transform="translate(-470,-14) scale(1,1)">
		<path class="st5" d="M857.8,709.6L850,689l-9,20.1L857.8,709.6"/>
	</g>
	<g transform="translate(-470,-14) scale(1,1)">
		<path class="st5" d="M1560,1009v71h-256l1,63"/>
	</g>
	<g transform="translate(-470,-14) scale(1,1)">
		<path class="st4" d="M1296.3,1122.8l8.7,20.2l8.1-20.5"/>
	</g>
	<g transform="translate(-470,-14) scale(1,1)">
		<path class="st5" d="M1296.3,1122.8l8.7,20.2l8.1-20.5L1296.3,1122.8"/>
	</g>
	<g transform="translate(-470,-14) scale(1,1)">
		<path class="st5" d="M1056,456H656V246"/>
	</g>
	<g transform="translate(-470,-14) scale(1,1)">
		<path class="st4" d="M660.2,256.2L656,246l-4.2,10.2L656,268"/>
	</g>
	<g transform="translate(-470,-14) scale(1,1)">
		<path class="st5" d="M660.2,256.2L656,246l-4.2,10.2L656,268L660.2,256.2"/>
	</g>
</g>
</svg>
